<svg xmlns="http://www.w3.org/2000/svg" viewBox="0 0 80.49 50.31"><defs><style>.cls-1{fill:#ff7f00;}</style></defs><g id="Layer_2" data-name="Layer 2"><g id="Isolation_Mode" data-name="Isolation Mode"><path class="cls-1" d="M25.15,50.31a5,5,0,0,1-3.55-1.48L1.47,28.71a5,5,0,0,1,0-7.11L21.6,1.47a5,5,0,0,1,7.11,0L48.83,21.6a5,5,0,0,1,0,7.11L28.71,48.83A5,5,0,0,1,25.15,50.31Zm-13-25.16,13,13,13-13-13-13Z"/><path class="cls-1" d="M75.46,30.18H45.28a5,5,0,0,1,0-10.06h18L53.25,10.06H25.15A5,5,0,1,1,25.15,0H55.34a5,5,0,0,1,3.55,1.47L79,21.6a5,5,0,0,1-3.56,8.58Z"/><path class="cls-1" d="M55.34,50.31H25.15a5,5,0,1,1,0-10.06h28.1L71.9,21.6A5,5,0,1,1,79,28.71L58.89,48.83A5,5,0,0,1,55.34,50.31Z"/></g></g></svg>