<svg xmlns="http://www.w3.org/2000/svg" viewBox="0 0 57.99 58"><defs><style>.cls-1{fill:#93f;}</style></defs><g id="Layer_2" data-name="Layer 2"><g id="Isolation_Mode" data-name="Isolation Mode"><path class="cls-1" d="M37.63,40.72A20.35,20.35,0,1,1,52,34.77,20.35,20.35,0,0,1,37.63,40.72Zm0-32.57a12.22,12.22,0,1,0,8.64,3.58A12.14,12.14,0,0,0,37.63,8.15Z"/><path class="cls-1" d="M20.35,58A20.36,20.36,0,0,1,6,23.24L23.23,6A4.07,4.07,0,1,1,29,11.73L11.71,29A12.22,12.22,0,0,0,29,46.29L46.27,29A4.07,4.07,0,1,1,52,34.77L34.75,52.05A20.33,20.33,0,0,1,20.35,58Z"/></g></g></svg>